<svg width="517" height="533" viewBox="0 0 517 533" fill="none" xmlns="http://www.w3.org/2000/svg">
<path d="M448.98 94.6028C301.464 52.8176 218.954 54.2211 73.0268 105.422C121.719 225.354 159.559 277.539 259.651 324.502C296.535 298.237 311.083 277.865 327.268 232.542L392.181 251.475C354.972 329.683 326.473 364.065 256.946 402.938C185.229 367.087 148.332 341.711 91.9597 281.227C31.3606 203.979 13.6309 155.901 0 64.8511C178.658 -12.9416 283.24 -16.8506 476.027 32.3947L448.98 94.6028Z" fill="#FF7700"/>
<path d="M451.685 213.61C350.631 175.329 291.587 174.428 183.92 194.677L148.759 137.878C299.785 105.611 405.037 110.702 516.598 178.448C503.828 346.025 455.743 426.33 259.652 532.764C178.588 495.112 135.146 466.486 59.5039 408.348L100.074 351.549C158.561 401.616 193.289 427.171 265.061 459.737C375.945 394.543 416.49 340.134 451.685 213.61Z" fill="#00AE47"/>
</svg>
